<?xml version="1.0" standalone="no"?>
<!DOCTYPE svg PUBLIC "-//W3C//DTD SVG 20010904//EN"
 "http://www.w3.org/TR/2001/REC-SVG-20010904/DTD/svg10.dtd">
<svg version="1.0" xmlns="http://www.w3.org/2000/svg"
 width="512.000000pt" height="512.000000pt" viewBox="0 0 512.000000 512.000000"
 preserveAspectRatio="xMidYMid meet">
<metadata>
Created by potrace 1.14, written by Peter Selinger 2001-2017
</metadata>
<g transform="translate(0.000000,512.000000) scale(0.100000,-0.100000)"
fill="#000000" stroke="none">
<path d="M2350 5104 c-101 -15 -125 -20 -168 -33 -18 -5 -36 -10 -40 -10 -26
-3 -152 -51 -237 -91 -210 -98 -391 -240 -553 -433 -32 -38 -43 -89 -22 -102
17 -10 12 -21 -35 -79 -42 -51 -47 -54 -73 -45 -42 14 -64 1 -131 -79 -314
-375 -341 -901 -68 -1308 25 -38 56 -80 69 -94 13 -14 90 -104 172 -200 163
-191 267 -296 363 -368 59 -43 62 -47 48 -66 -48 -69 -110 -241 -128 -361
l-13 -80 -53 -1 c-129 -4 -221 -42 -292 -122 -37 -41 -52 -50 -89 -56 -114
-17 -202 -124 -194 -237 3 -45 35 -118 63 -143 12 -11 42 -33 68 -50 l48 -31
0 -114 1 -113 -41 -19 c-56 -27 -94 -64 -120 -121 -27 -57 -25 -130 5 -189 20
-38 95 -109 116 -109 33 0 39 -31 39 -210 0 -189 7 -223 49 -234 11 -3 547 -6
1189 -6 l1168 0 24 25 c14 13 25 30 25 37 0 10 19 14 73 13 68 0 73 -1 84 -27
19 -44 43 -50 185 -46 172 4 165 -5 166 205 0 223 -2 208 28 222 14 6 47 25
74 43 166 108 126 355 -65 407 l-40 10 2 83 c1 46 2 95 2 109 1 20 13 32 61
59 76 43 106 75 129 136 30 81 13 170 -44 228 -47 49 -92 70 -151 70 -46 1
-54 5 -75 33 -65 87 -178 141 -305 145 l-78 3 -12 75 c-17 108 -48 207 -97
304 l-43 85 61 45 c72 53 190 166 265 255 30 35 60 69 65 75 6 6 35 40 65 76
30 36 57 67 60 70 28 27 117 138 152 190 216 318 241 748 64 1098 -27 53 -105
173 -129 196 -6 7 -32 37 -57 66 -25 30 -63 75 -85 100 -22 25 -62 73 -90 105
-85 103 -267 278 -352 338 -73 52 -259 153 -338 184 -41 16 -193 61 -230 68
-16 3 -55 10 -85 16 -85 16 -353 18 -450 3z"/>
</g>
</svg>
