<svg version="1.1" id="Layer_1" xmlns="http://www.w3.org/2000/svg" xmlns:xlink="http://www.w3.org/1999/xlink" x="0px" y="0px" width="105px" height="36px" viewBox="0 0 355.367 121.093" enable-background="new 0 0 355.367 121.093" xml:space="preserve"><g><polygon fill="#231F1F" points="101.408,91.881 101.408,113.178 97.242,113.178 97.242,102.928 88.595,102.928 88.595,113.178 84.429,113.178 84.429,91.881 88.595,91.881 88.595,100.16 97.242,100.16 97.242,91.881 	"></polygon><path fill="#231F1F" d="M112.979,105.21l-2.045,0.272c-0.951,0.123-1.723,0.448-2.311,0.972c-0.592,0.529-0.881,1.185-0.881,1.984 c0,0.701,0.2,1.273,0.595,1.699c0.391,0.428,0.862,0.637,1.412,0.637c0.425,0,0.839-0.057,1.235-0.18 c0.396-0.121,0.733-0.344,1.014-0.67c0.309-0.326,0.547-0.758,0.721-1.295c0.169-0.535,0.26-1.232,0.26-2.083V105.21z M113.891,113.178c-0.125-0.078-0.26-0.258-0.41-0.543c-0.157-0.289-0.235-0.566-0.235-0.854c-0.626,0.67-1.345,1.127-2.162,1.367 c-0.811,0.248-1.609,0.363-2.398,0.363c-1.44,0-2.643-0.436-3.595-1.322c-0.953-0.881-1.431-2.086-1.431-3.604 c0-1.4,0.503-2.624,1.508-3.667s2.458-1.673,4.368-1.871l3.407-0.394c0-1.302-0.291-2.189-0.87-2.662 c-0.578-0.479-1.233-0.716-1.959-0.716c-0.892,0-1.742,0.196-2.539,0.59c-0.803,0.396-1.538,0.901-2.205,1.509l-0.706-3.076 c0.812-0.564,1.67-0.995,2.574-1.274c0.903-0.287,1.939-0.427,3.118-0.427c0.728,0,1.484,0.102,2.271,0.304 c0.779,0.205,1.485,0.54,2.111,1.003c0.651,0.468,1.177,1.084,1.583,1.844c0.406,0.757,0.613,1.696,0.613,2.816v6.631 c0,0.629,0.044,1.299,0.146,2.006c0.104,0.713,0.306,1.373,0.613,1.977H113.891z"></path><path fill="#231F1F" d="M123.869,96.9v1.398c0.547-0.544,1.188-0.966,1.929-1.26c0.743-0.297,1.509-0.441,2.301-0.441 c1.948,0,3.48,0.565,4.612,1.701c1.124,1.138,1.684,2.691,1.684,4.657v10.222h-3.982v-9.644c0-1.234-0.281-2.241-0.836-3.013 c-0.561-0.769-1.348-1.158-2.361-1.158c-0.937,0-1.722,0.386-2.358,1.146c-0.64,0.756-0.962,1.811-0.962,3.148v9.52h-3.957V96.9 H123.869z"></path><path fill="#231F1F" d="M145.84,105.21l-2.039,0.272c-0.953,0.123-1.723,0.448-2.308,0.972c-0.593,0.529-0.886,1.185-0.886,1.984 c0,0.701,0.197,1.273,0.591,1.699c0.395,0.428,0.872,0.637,1.416,0.637c0.429,0,0.838-0.057,1.236-0.18 c0.391-0.121,0.732-0.344,1.018-0.67c0.303-0.326,0.539-0.758,0.715-1.295c0.174-0.535,0.257-1.232,0.257-2.083V105.21z M146.756,113.178c-0.122-0.078-0.264-0.258-0.412-0.543c-0.151-0.289-0.229-0.566-0.229-0.854 c-0.629,0.67-1.347,1.127-2.158,1.367c-0.812,0.248-1.617,0.363-2.407,0.363c-1.443,0-2.636-0.436-3.596-1.322 c-0.946-0.881-1.421-2.086-1.421-3.604c0-1.4,0.498-2.624,1.505-3.667c0.999-1.044,2.461-1.673,4.367-1.871l3.403-0.394 c0-1.302-0.284-2.189-0.864-2.662c-0.578-0.479-1.233-0.716-1.964-0.716c-0.894,0-1.736,0.196-2.543,0.59 c-0.801,0.396-1.535,0.901-2.206,1.509l-0.698-3.076c0.813-0.564,1.666-0.995,2.567-1.274c0.911-0.287,1.944-0.427,3.129-0.427 c0.728,0,1.484,0.102,2.26,0.304c0.786,0.205,1.488,0.54,2.117,1.003c0.651,0.468,1.173,1.084,1.584,1.844 c0.408,0.757,0.608,1.696,0.608,2.816v6.631c0,0.629,0.052,1.299,0.151,2.006c0.101,0.713,0.305,1.373,0.609,1.977H146.756z"></path><path fill="#231F1F" d="M161.391,103.411v7.121h2.191c1.057,0,1.929-0.307,2.632-0.924c0.7-0.619,1.05-1.508,1.05-2.662 c0-1.282-0.415-2.19-1.246-2.723c-0.835-0.542-1.769-0.812-2.798-0.812H161.391z M161.391,94.527v6.24h1.553 c1.153,0,2.029-0.312,2.611-0.933c0.59-0.619,0.888-1.444,0.888-2.479c0-0.852-0.248-1.534-0.744-2.053 c-0.495-0.516-1.206-0.775-2.117-0.775H161.391z M163.978,113.178h-6.786V91.881h7.241c1.781,0,3.263,0.453,4.433,1.363 c1.161,0.915,1.742,2.094,1.742,3.533c0,1.441-0.348,2.575-1.064,3.412c-0.704,0.829-1.489,1.396-2.338,1.703 c1.24,0.303,2.283,0.861,3.132,1.67c0.848,0.813,1.276,1.941,1.276,3.383c0,1.885-0.651,3.395-1.96,4.533 C168.345,112.612,166.457,113.178,163.978,113.178"></path><path fill="#231F1F" d="M182.843,105.21l-2.039,0.272c-0.955,0.123-1.723,0.448-2.313,0.972c-0.587,0.529-0.88,1.185-0.88,1.984 c0,0.701,0.196,1.273,0.589,1.699c0.394,0.428,0.874,0.637,1.417,0.637c0.426,0,0.84-0.057,1.232-0.18 c0.395-0.121,0.734-0.344,1.019-0.67c0.305-0.326,0.54-0.758,0.716-1.295c0.174-0.535,0.26-1.232,0.26-2.083V105.21z M183.757,113.178c-0.12-0.078-0.263-0.258-0.416-0.543c-0.146-0.289-0.222-0.566-0.222-0.854c-0.633,0.67-1.352,1.127-2.163,1.367 c-0.81,0.248-1.615,0.363-2.403,0.363c-1.444,0-2.636-0.436-3.594-1.322c-0.95-0.881-1.43-2.086-1.43-3.604 c0-1.4,0.508-2.624,1.513-3.667c0.999-1.044,2.456-1.673,4.364-1.871l3.406-0.394c0-1.302-0.29-2.189-0.869-2.662 c-0.579-0.479-1.229-0.716-1.957-0.716c-0.9,0-1.742,0.196-2.547,0.59c-0.799,0.396-1.534,0.901-2.205,1.509l-0.699-3.076 c0.812-0.564,1.667-0.995,2.568-1.274c0.908-0.287,1.944-0.427,3.127-0.427c0.725,0,1.483,0.102,2.259,0.304 c0.785,0.205,1.486,0.54,2.12,1.003c0.646,0.468,1.171,1.084,1.584,1.844c0.4,0.757,0.601,1.696,0.601,2.816v6.631 c0,0.629,0.055,1.299,0.157,2.006c0.096,0.713,0.302,1.373,0.606,1.977H183.757z"></path><path fill="#231F1F" d="M193.742,96.9v1.398c0.547-0.544,1.19-0.966,1.928-1.26c0.74-0.297,1.511-0.441,2.304-0.441 c1.945,0,3.479,0.565,4.608,1.701c1.124,1.138,1.682,2.691,1.682,4.657v10.222h-3.98v-9.644c0-1.234-0.277-2.241-0.839-3.013 c-0.556-0.769-1.342-1.158-2.36-1.158c-0.934,0-1.716,0.386-2.354,1.146c-0.642,0.756-0.959,1.811-0.959,3.148v9.52h-3.957V96.9 H193.742z"></path><polygon fill="#231F1F" points="207.065,113.178 207.065,90.966 211.022,90.966 211.022,102.62 216.199,96.901 220.425,96.901 214.127,103.869 221.216,113.178 216.685,113.178 211.022,105.787 211.022,113.178 	"></polygon><path fill="#009591" d="M67.409,104.803c-0.1-0.607-0.266-1.196-0.513-1.745c-0.771-1.667-1.845-3.065-3.458-4.008 c-2.508-1.463-5.538-1.451-8.017,0.051c-1.122,0.681-2.046,1.656-2.641,2.827c-0.201,0.399-0.364,0.814-0.499,1.239 c-0.651,2.075-0.631,4.871,0.549,6.765c0.385,0.621,0.937,1.15,1.616,1.412c0.682,0.262,1.489,0.232,2.101-0.166 c0.787-0.508,0.928-1.475,0.782-2.342c-0.186-1.104-0.327-2.189,0.078-3.271c0.129-0.347,0.313-0.677,0.579-0.935 c0.165-0.155,0.353-0.279,0.556-0.375c0.428-0.212,0.915-0.304,1.386-0.23c0.819,0.134,1.492,0.771,1.857,1.52 c0.361,0.743,0.462,1.592,0.501,2.424c0.173,3.619-0.692,7.365-1.616,10.844c-0.095,0.357-0.192,0.717-0.293,1.07 c-0.078,0.273-0.218,0.625-0.043,0.893c0.076,0.115,0.196,0.195,0.323,0.248c0.533,0.217,0.974-0.113,1.334-0.477 c2.119-2.135,3.481-4.887,4.411-7.719c0.346-1.061,0.644-2.131,0.849-3.23C67.523,108.1,67.68,106.385,67.409,104.803"></path><path fill="#009591" d="M82.603,88.075c0-0.545-0.481-0.899-0.997-0.886c-0.526,0.021-1.012,0.287-1.49,0.473 c-9.335,3.551-19.865,4.226-29.702,2.807c-1.682-0.245-3.386-0.585-5.082-0.847c-1.056-0.165-2.103-0.405-3.17-0.483 c-0.913-0.071-2.045-0.104-2.783,0.528c-0.968,0.839-0.9,2.426-0.349,3.477c0.661,1.258,1.818,2.203,3.021,2.919 c1.169,0.701,2.566,1.445,3.961,1.354c3.759-0.24,7.511-0.604,11.245-1.089c6.372-0.825,13.055-1.606,19.039-4.081 c1.954-0.806,3.887-1.813,5.564-3.12C82.167,88.897,82.603,88.518,82.603,88.075"></path><path fill="#ED1651" d="M55.833,84.876c0,2.026,1.643,3.672,3.67,3.672c2.029,0,3.673-1.646,3.673-3.672 c0-0.304-0.069-0.606-0.197-0.882c-0.316-0.668-0.669-0.99-0.638-1.79c0.052-1.077-1.334-1.091-2.078-1.091 c-0.811,0-1.673,0.111-2.406,0.48c-0.584,0.29-1.087,0.745-1.443,1.298c-0.364,0.563-0.567,1.226-0.581,1.899V84.876"></path><path fill="#343434" d="M262.137,16.797H250.17v2.678c-3.239-2.049-7.076-3.236-11.19-3.236c-11.572,0-20.953,9.381-20.953,20.953 c0,11.571,9.381,20.952,20.953,20.952c4.114,0,7.951-1.187,11.19-3.236v2.691h11.967V16.797z M240.031,47.297 c-5.582,0-10.105-4.524-10.105-10.105c0-5.582,4.523-10.106,10.105-10.106c5.581,0,10.106,4.524,10.106,10.106 C250.137,42.773,245.612,47.297,240.031,47.297"></path><path fill="#343434" d="M290.539,16.234c-4.121,0-7.914,1.402-10.932,3.753v-3.199h-11.967v40.802h11.967v-9.525V35.22h0.004 c0.115-4.527,3.822-8.163,8.377-8.163c4.549,0,8.246,3.625,8.371,8.144h0.002v15.642v6.748h11.969V34.027 C308.33,24.201,300.365,16.234,290.539,16.234"></path><polygon fill="#343434" points="341.164,57.574 355.367,57.574 336.645,34.298 352.578,16.773 338.563,16.773 325.873,31.305 325.873,0 313.904,0 313.904,57.574 325.873,57.574 325.873,46.142 329.24,42.439 	"></polygon><path fill="#20B24B" d="M52.323,4.621h-7.828c-1.202,0-2.175,0.972-2.175,2.171v48.635c0,1.199,0.973,2.171,2.175,2.171h7.828 c1.201,0,2.176-0.972,2.176-2.171V6.792C54.499,5.593,53.524,4.621,52.323,4.621"></path><path fill="#20B24B" d="M106.214,4.621h-7.829c-1.201,0-2.175,0.972-2.175,2.171v28.894l-22.288-30.1 c-0.052-0.077-0.11-0.15-0.172-0.219c-0.004-0.006-0.009-0.011-0.014-0.016c-0.041-0.045-0.083-0.09-0.127-0.133 c-0.014-0.013-0.028-0.024-0.041-0.036c-0.038-0.034-0.076-0.067-0.116-0.098c-0.018-0.015-0.038-0.029-0.057-0.043 c-0.036-0.027-0.075-0.053-0.112-0.078c-0.022-0.013-0.044-0.026-0.066-0.04C73.178,4.901,73.14,4.879,73.1,4.859 c-0.023-0.011-0.045-0.022-0.069-0.033c-0.041-0.019-0.082-0.037-0.125-0.053c-0.022-0.01-0.045-0.018-0.068-0.027 c-0.043-0.014-0.086-0.029-0.13-0.04c-0.024-0.008-0.05-0.014-0.075-0.02c-0.042-0.01-0.084-0.02-0.127-0.028 c-0.029-0.005-0.06-0.01-0.09-0.014c-0.039-0.005-0.078-0.01-0.116-0.013c-0.037-0.004-0.075-0.005-0.113-0.006 c-0.025-0.001-0.049-0.004-0.074-0.004h-7.828c-1.202,0-2.175,0.972-2.175,2.171v48.635c0,1.199,0.973,2.171,2.175,2.171h7.828 c1.202,0,2.176-0.972,2.176-2.171V26.542l22.316,30.137c0.153,0.217,0.34,0.396,0.549,0.537c0.008,0.006,0.017,0.011,0.026,0.017 c0.043,0.03,0.087,0.055,0.133,0.081c0.02,0.012,0.041,0.023,0.062,0.034c0.033,0.019,0.068,0.034,0.103,0.05 c0.035,0.016,0.069,0.032,0.105,0.045c0.023,0.009,0.045,0.017,0.067,0.025c0.048,0.017,0.097,0.032,0.147,0.047 c0.011,0.003,0.021,0.005,0.031,0.008c0.178,0.048,0.365,0.075,0.557,0.075h7.829c1.2,0,2.175-0.972,2.175-2.171V6.792 C108.389,5.593,107.414,4.621,106.214,4.621"></path><path fill="#20B24B" d="M33.451,45.419H12.179V6.792c0-1.198-0.975-2.17-2.176-2.17H2.174C0.972,4.622,0,5.594,0,6.792v48.631 v0.004c0,0.583,0.231,1.111,0.606,1.502c0.01,0.011,0.02,0.022,0.03,0.032c0.01,0.01,0.022,0.019,0.033,0.03 c0.389,0.375,0.918,0.606,1.501,0.606h0.004h31.277c1.198,0,2.17-0.972,2.17-2.174v-7.829 C35.621,46.393,34.649,45.419,33.451,45.419"></path><path fill="#20B24B" d="M149.45,4.621c1.199,0,2.172,0.983,2.172,2.184v7.819c0,1.202-0.973,2.176-2.172,2.176h-21.272v8.22h21.272 c1.199,0,2.172,0.974,2.172,2.175v7.829c0,1.201-0.973,2.174-2.172,2.174h-21.272v8.221h21.272c1.199,0,2.172,0.973,2.172,2.175 v7.829c0,1.201-0.973,2.175-2.172,2.175h-31.276h-0.004c-0.583,0-1.112-0.232-1.501-0.607c-0.011-0.011-0.023-0.02-0.033-0.03 c-0.01-0.01-0.02-0.022-0.03-0.033c-0.375-0.39-0.606-0.918-0.606-1.501v-0.004V6.805V6.802c0-0.581,0.229-1.107,0.601-1.496 c0.012-0.013,0.023-0.027,0.036-0.039c0.007-0.008,0.016-0.016,0.025-0.023c0.391-0.38,0.922-0.623,1.508-0.623H149.45z"></path><path fill="#343434" d="M200.51,57.577c7.951-0.418,14.269-6.997,14.269-15.051c0-5.152-2.586-9.699-6.528-12.417 c2.588-2.707,4.177-6.375,4.177-10.415c0-8.172-6.504-14.824-14.617-15.065l-23.354-0.008v52.977L200.51,57.577z M186.417,15.621 h8.643v0.002c2.787,0.048,5.032,2.321,5.032,5.12c0,2.798-2.245,5.071-5.032,5.12v0.002h-8.643V15.621z M197.402,46.6v0.002 h-10.984V36.358h10.984v0.002c2.787,0.048,5.032,2.322,5.032,5.12C202.434,44.279,200.189,46.552,197.402,46.6"></path><path fill="#808184" d="M1.055,90.029h3.119v7.38h0.051c0.761-1.191,2.105-1.978,3.957-1.978c3.017,0,5.174,2.512,5.148,6.264 c0,4.438-2.815,6.645-5.605,6.645c-1.598,0-3.018-0.607-3.905-2.13H3.769l-0.153,1.853H0.953c0.051-0.838,0.102-2.208,0.102-3.451 V90.029z M4.174,102.964c0,0.254,0.025,0.507,0.076,0.735c0.33,1.269,1.421,2.181,2.765,2.181c1.953,0,3.144-1.547,3.144-4.058 c0-2.18-1.039-3.956-3.119-3.956c-1.268,0-2.434,0.913-2.764,2.283c-0.051,0.228-0.102,0.507-0.102,0.811V102.964z"></path><path fill="#808184" d="M17.667,95.71l2.207,6.62c0.253,0.761,0.532,1.699,0.71,2.384h0.076c0.177-0.685,0.405-1.623,0.659-2.408 l1.928-6.596h3.322l-3.094,8.42c-1.7,4.617-2.84,6.671-4.287,7.939c-1.242,1.064-2.51,1.471-3.271,1.572l-0.71-2.613 c0.532-0.125,1.167-0.404,1.801-0.861c0.583-0.381,1.293-1.115,1.724-1.953c0.102-0.229,0.178-0.404,0.178-0.559 c0-0.125-0.025-0.303-0.152-0.607l-4.54-11.337H17.667z"></path></g></svg>
