<svg id="Capa_1" enable-background="new 0 0 512 512" height="512" viewBox="0 0 512 512" width="512" xmlns="http://www.w3.org/2000/svg"><g><g><g><path d="m343.243 306.292c-14.87-34.103-48.718-57.243-87.245-57.244h-.001c-11.191 0-21.962 1.953-31.979 5.545l-15.585 20.792v68.793h47.565 95.129c0-13.46-2.819-26.27-7.884-37.886z" fill="#70dcba"/><path d="m168.753 306.293c-5.065 11.615-7.884 24.426-7.884 37.885h47.564c2.442-14.96 7.834-28.952 15.586-41.342v-48.24c-24.661 8.836-44.758 27.597-55.266 51.697z" fill="#30cd9c"/></g><g><path d="m396.634 92.804-29.139-33.827c-19.656-22.818-45.12-38.571-72.725-46.203l-38.771 14.451v282.775h.044.002c42.655 0 83.327-18.823 111.585-51.642l29.019-33.703c32.46-37.699 32.48-94.128-.015-131.851z" fill="#70dcba"/><path d="m255.998 7.5c-42.673 0-83.309 18.76-111.487 51.47l-29.147 33.834c-32.47 37.691-32.501 94.128.002 131.856l29.119 33.798c28.207 32.74 68.848 51.526 111.504 51.542h.01v-272.614c15.012-4.755 28.317-13.342 38.771-24.612-12.874-3.559-26.068-5.274-38.772-5.274z" fill="#30cd9c"/></g><path d="m255.998 237.383-31.983 17.2c5.616 14.729 16.849 26.394 31.983 34.486 15.133-8.092 26.349-19.759 31.965-34.486h.001z" fill="#ffbd86"/><g><path d="m274.897 32.63h-21.781c-14.481 0-28.159 6.655-37.095 18.05l-74.052 94.421 74.052 94.421c8.937 11.395 22.614 18.044 37.095 18.044h21.781c54.033-9.031 95.13-55.968 95.13-112.465 0-56.538-41.147-103.466-95.13-112.471z" fill="#fed2a4"/><path d="m179.878 145.101c0-56.538 41.04-103.465 95.019-112.471-6.148-1.026-12.461-1.559-18.9-1.559-62.975 0-114.028 51.053-114.028 114.03 0 62.975 51.053 114.028 114.028 114.028 6.44 0 12.752-.538 18.9-1.563-43.406-7.242-78.512-39.003-90.601-80.563-2.944-10.124-4.418-20.828-4.418-31.902z" fill="#ffbd86"/></g><g><path d="m291.417 16.201-111.383 41.126-.156 81.602c20.933-16.611 47.452-26.414 75.738-26.554 56.745-.28 106.139 38.397 119.638 93.281 9.274-18.183 14.51-38.756 14.51-60.529 0-61.482-41.727-113.394-98.347-128.926z" fill="#70dcba"/><path d="m257.477 36.978c12.71-4.268 24.315-11.456 33.94-20.777-11.258-3.088-23.195-4.772-35.42-4.772-73.706 0-133.671 59.965-133.671 133.673 0 21.913 5.301 42.612 14.687 60.881 6.612-27.235 22.015-50.534 42.864-67.079 2.549-47.562 34.301-87.385 77.6-101.926z" fill="#30cd9c"/></g></g><path d="m276.822 175.223-7.281 2.997-7.28-4.181c-3.697-.082-8.818-.082-12.526 0l-7.28 4.181-7.282-2.997c-10.674 1.846-17.745 6.328-17.745 17.003 0 10.673 7.073 20.048 17.745 25.42l7.282.004 7.28 4.378c2.038.26 4.13.399 6.263.399s4.224-.139 6.263-.399l7.28-4.378 7.281-.004c10.672-5.372 17.745-14.747 17.745-25.42 0-10.674-7.071-15.157-17.745-17.003z" fill="#fff"/><path d="m367.211 344.179h-113.213l-30 30v110.321l20 20h153.213v-130.321c0-16.569-13.432-30-30-30z" fill="#676fb2"/><path d="m273.998 344.179h-128c-16.569 0-30 13.431-30 30v130.321h128v-130.321c0-16.569 13.431-30 30-30z" fill="#4c5699"/><g fill="#30cd9c"><path d="m105.434 389.626 26.128 15.085c2.362 1.364 4.941 2.012 7.486 2.012 5.184 0 10.227-2.69 13.004-7.502 4.142-7.174 1.684-16.348-5.49-20.49l-26.128-15.085c-7.176-4.145-16.35-1.685-20.49 5.49-4.142 7.175-1.684 16.348 5.49 20.49z"/><path d="m146.562 448.013-26.128-15.085c-7.176-4.144-16.35-1.684-20.49 5.49-4.142 7.174-1.684 16.348 5.49 20.49l26.128 15.085c2.362 1.364 4.941 2.012 7.486 2.012 5.184 0 10.227-2.69 13.004-7.502 4.142-7.174 1.684-16.348-5.49-20.49z"/></g><g fill="#70dcba"><path d="m410.591 389.626-26.128 15.085c-2.362 1.364-4.941 2.012-7.486 2.012-5.184 0-10.227-2.69-13.004-7.502-4.142-7.174-1.684-16.348 5.49-20.49l26.128-15.085c7.176-4.145 16.35-1.685 20.49 5.49 4.142 7.175 1.684 16.348-5.49 20.49z"/><path d="m369.463 448.013 26.128-15.085c7.176-4.144 16.35-1.684 20.49 5.49 4.142 7.174 1.684 16.348-5.49 20.49l-26.128 15.085c-2.362 1.364-4.941 2.012-7.486 2.012-5.184 0-10.227-2.69-13.004-7.502-4.142-7.174-1.684-16.348 5.49-20.49z"/></g><g><g><path d="m278.116 379.359h-34.119v85.715h33.947c14.409-13.834 23.058-32.068 23.058-51.897 0-14.51-9.226-27.15-22.886-33.818z" fill="#efedff"/><path d="m278.116 379.359c-6.682-3.262-14.42-5.102-22.667-5.017-25.018.257-44.945 18.848-44.437 40.435.472 20.051 9.79 38.48 25.068 52.204 10.794 9.696 28.781 9.859 39.615.196.769-.686 1.511-1.394 2.25-2.104-14.063-13.503-22.589-31.155-23.039-50.296-.352-14.935 9.081-28.43 23.21-35.418z" fill="#d4d4ff"/></g><g><ellipse cx="291.837" cy="422.715" fill="#70dcba" rx="22.5" ry="14.866" transform="matrix(.866 -.5 .5 .866 -172.259 202.551)"/><ellipse cx="220.159" cy="422.715" fill="#30cd9c" rx="14.866" ry="22.5" transform="matrix(.5 -.866 .866 .5 -256.002 402.021)"/></g></g><path d="m276.822 175.223-7.281 2.997-7.28-4.181c-3.697-.082-8.818-.082-12.526 0l-7.28 4.181-7.282-2.997c-10.674 1.846-17.745 6.328-17.745 17.003 0 10.673 7.073 20.048 17.745 25.42l7.282.004 7.28 4.378c2.038.26 4.13.399 6.263.399s4.224-.139 6.263-.399l7.28-4.378 7.281-.004c10.672-5.372 17.745-14.747 17.745-25.42 0-10.674-7.071-15.157-17.745-17.003z" fill="#fff"/><g><path d="m135.244 213.271c.595.145 1.19.214 1.775.214 3.38 0 6.45-2.302 7.282-5.732.744-3.066 1.615-6.074 2.59-9.027 14.757 30.102 41.254 52.17 71.568 62.003 5.929 13.213 16.211 24.399 30.039 32.694v6.577c0 4.142 3.358 7.5 7.5 7.5s7.5-3.358 7.5-7.5v-6.579c13.815-8.289 24.091-19.475 30.021-32.694 30.06-9.753 56.899-31.742 71.793-62.435 1.001 2.993 1.894 6.044 2.659 9.156.989 4.022 5.051 6.48 9.074 5.491 4.022-.989 6.481-5.052 5.492-9.074-6.936-28.198-23.373-53.574-46.285-71.455-74.34-58.017-184.293-19.783-206.527 71.803-.977 4.025 1.494 8.08 5.519 9.058zm120.754 67.173c-6.971-4.215-12.783-9.292-17.296-15.052 5.685.806 11.456 1.237 17.296 1.237 5.835 0 11.603-.431 17.284-1.237-4.511 5.763-10.319 10.839-17.284 15.052zm100.934-101.25c-14.47 42.795-55.531 72.436-100.935 72.436-45.937 0-86.056-28.82-100.798-72.021 43.347-79.247 157.999-79.753 201.733-.415z"/><path d="m414.342 396.122c10.717-6.188 14.46-19.952 8.236-30.734-4.585-7.944-13.822-12.631-23.442-10.872-6.741-10.897-18.808-17.837-31.925-17.837h-8.864c-1.195-16.547-6.336-32.376-15.104-46.477 11.094-7.636 21.242-16.697 30.07-26.949l29.02-33.703c34.913-40.547 34.854-101.159-.017-141.64l-29.139-33.827c-29.606-34.371-72.316-54.083-117.18-54.083-44.858 0-87.564 19.709-117.168 54.074l-5.173 6.005c-2.704 3.138-2.351 7.874.787 10.578 3.138 2.703 7.873 2.352 10.577-.787l5.173-6.005c26.753-31.054 65.317-48.865 105.805-48.865 40.493 0 79.06 17.813 105.814 48.872l29.139 33.827c30.078 34.916 30.036 87.197.015 122.063l-29.02 33.703c-14.733 17.112-33.498 30.587-54.265 38.968-3.841 1.55-5.698 5.921-4.148 9.762 1.551 3.841 5.921 5.698 9.762 4.148 5.895-2.379 11.641-5.135 17.205-8.228 7.287 11.722 11.638 24.842 12.801 38.563h-174.607c1.164-13.726 5.519-26.849 12.812-38.57 5.57 3.095 11.323 5.854 17.226 8.234 3.841 1.549 8.211-.308 9.761-4.15 1.549-3.841-.309-8.211-4.15-9.761-20.742-8.366-39.476-21.807-54.176-38.87l-29.119-33.798c-30.085-34.922-30.028-87.21-.002-122.065l4.394-5.101c2.704-3.138 2.351-7.874-.787-10.577-3.139-2.704-7.875-2.351-10.577.787l-4.394 5.101c-34.933 40.55-34.867 101.17.002 141.646l29.119 33.798c8.795 10.208 18.906 19.232 29.962 26.842-8.774 14.099-13.919 29.93-15.114 46.483h-7.652c-13.071 0-24.944 6.722-31.729 17.53-8.903-.529-16.764 4.148-20.82 11.177-6.233 10.798-2.465 24.559 8.235 30.735l6.814 3.934v23.814c-6.263 1.269-11.8 5.168-15.049 10.798-6.233 10.798-2.465 24.559 8.235 30.735l6.814 3.934v35.166c0 4.142 3.358 7.5 7.5 7.5h230.508c4.143 0 7.5-3.358 7.5-7.5s-3.357-7.5-7.5-7.5h-223.009v-19.002l4.313 2.49c15.039 8.686 33.753-2.307 33.753-19.471 0-8.021-4.312-15.493-11.252-19.499-29.289-16.91-25.814-14.919-26.814-15.452v-17.35l4.313 2.49c10.777 6.224 24.551 2.483 30.736-8.235 6.233-10.798 2.465-24.559-8.235-30.735-11.308-6.529-17.962-10.385-21.594-12.477 4.2-5.043 10.472-8.08 17.281-8.08h221.213c7.256 0 13.964 3.546 18.14 9.219l-19.637 11.338c-10.662 6.156-14.489 19.9-8.235 30.735 6.156 10.663 19.9 14.491 30.735 8.236l1.497-.864v17.321l-23.997 13.855c-10.662 6.156-14.489 19.9-8.235 30.735 6.156 10.663 19.9 14.491 30.735 8.236l1.497-.864v17.374h-13.205c-4.143 0-7.5 3.358-7.5 7.5s3.357 7.5 7.5 7.5h20.705c4.143 0 7.5-3.358 7.5-7.5v-33.536l9.631-5.56c10.717-6.188 14.461-19.952 8.235-30.735-3.73-6.462-10.472-10.641-17.866-11.183v-21.803zm-271.53 58.386c3.504 2.023 4.86 6.581 2.745 10.246-2.02 3.5-6.579 4.861-10.245 2.744l-26.128-15.085c-3.502-2.021-4.861-6.58-2.744-10.246 2.157-3.738 6.812-4.726 10.244-2.744zm0-69.282c3.504 2.023 4.86 6.581 2.745 10.246-2.02 3.5-6.579 4.861-10.245 2.744l-26.128-15.085c-3.496-2.018-4.865-6.574-2.744-10.246 1.711-2.965 5.325-4.67 9.531-3.104.874.406 7.176 4.092 26.841 15.445zm266.775 56.941c2.107 3.652.772 8.215-2.745 10.246l-26.128 15.085c-3.658 2.111-8.219.765-10.244-2.744-2.112-3.658-.767-8.22 2.744-10.247l26.128-15.085c.001 0 .002-.001.003-.001 3.59-2.073 8.191-.807 10.242 2.746zm-32.61-42.943c-2.679 0-5.173-1.438-6.508-3.751-2.112-3.658-.767-8.22 2.744-10.247l25.892-14.949c4.2-2.422 8.575-.695 10.481 2.609 2.107 3.652.772 8.215-2.745 10.246-28.521 16.466-27.156 16.092-29.864 16.092z"/><path d="m187.453 172.447 3.113.549c-2.657 1.154-4.517 3.798-4.517 6.88v10.366c0 4.142 3.358 7.5 7.5 7.5s7.5-3.358 7.5-7.5v-10.366c0-2.148-.908-4.08-2.355-5.447l1.134.2c.441.078.878.115 1.311.115 3.571 0 6.736-2.561 7.377-6.199.719-4.079-2.005-7.969-6.084-8.688l-12.375-2.182c-4.079-.717-7.969 2.004-8.688 6.084-.719 4.079 2.005 7.969 6.084 8.688z"/><path d="m310.857 174.744c.432 0 .871-.038 1.311-.115l1.134-.2c-1.447 1.367-2.355 3.299-2.355 5.447v10.366c0 4.142 3.358 7.5 7.5 7.5s7.5-3.358 7.5-7.5v-10.366c0-3.081-1.86-5.726-4.517-6.88l3.113-.549c4.08-.719 6.803-4.609 6.083-8.688s-4.608-6.801-8.688-6.084l-12.375 2.182c-4.079.719-6.803 4.609-6.084 8.688.642 3.639 3.806 6.199 7.378 6.199z"/><path d="m255.998 229.927c25.403 0 46.069-16.913 46.069-37.701 0-7.604-2.826-17.669-16.289-22.447-7.719-2.739-17.488-3.301-29.781-3.301s-22.062.562-29.781 3.301c-13.463 4.777-16.289 14.843-16.289 22.447.002 20.788 20.668 37.701 46.071 37.701zm31.069-37.701c0 6.669-3.957 12.675-10.245 16.832v-26.168c8.272 1.661 10.245 4.78 10.245 9.336zm-24.806-10.667v32.904c-4.074.612-8.364.625-12.526 0v-32.904c1.942-.053 4.018-.081 6.263-.081s4.321.029 6.263.081zm-27.087 1.331v26.167c-6.288-4.157-10.245-10.163-10.245-16.832 0-4.555 1.973-7.675 10.245-9.335z"/><path d="m305.98 399.01c-6.856-18.921-27.154-32.446-50.608-32.168-22.151.228-41.947 13.452-49.058 32.097-5.335 1.366-9.62 4.419-12.135 8.776-6.573 11.384.988 26.637 15.181 34.585 4.69 11.259 12.146 21.672 21.708 30.261 6.892 6.191 15.951 9.291 24.993 9.291 8.927 0 17.838-3.023 24.625-9.077 9.656-8.612 17.189-19.095 21.929-30.463 14.447-8.099 21.679-23.38 15.202-34.596-2.466-4.273-6.641-7.3-11.837-8.706zm-98.811 16.204c1.509-2.611 9.005-3.306 16.673 1.121 7.799 4.504 10.795 11.302 9.307 13.879-1.483 2.569-8.989 3.315-16.673-1.121-7.669-4.426-10.833-11.235-9.307-13.879zm63.533 46.366c-8 7.136-21.56 7.053-29.611-.178-4.724-4.243-8.816-9.006-12.166-14.115 7.478-.392 13.818-3.688 17.214-9.571 7.944-13.758-4.728-32.587-23.564-38.119 14.357-24.162 53.854-23.081 67.162-.1-19.147 5.46-31.802 24.5-23.881 38.219 3.394 5.879 9.73 9.174 17.205 9.569-3.398 5.187-7.556 10.012-12.359 14.295zm24.817-32.486c-7.738 4.462-15.205 3.662-16.673 1.121-1.488-2.577 1.508-9.375 9.307-13.879 7.638-4.408 15.147-3.765 16.674-1.121 1.488 2.576-1.507 9.376-9.308 13.879z"/></g></g></svg>